<svg id="eZ5BS84asLJ1" xmlns="http://www.w3.org/2000/svg" xmlns:xlink="http://www.w3.org/1999/xlink" viewBox="0 0 300 300" shape-rendering="geometricPrecision" text-rendering="geometricPrecision" project-id="792d59d53139432ba23fc4816d31d256" export-id="a9ce3984a1ac471da01d0844819b9639" cached="false"><g transform="translate(-59.725822-53.499885)"><rect width="90.21" height="50" rx="6.96" ry="6.96" transform="matrix(0 1-1 0 156.48 240.8)" fill="#bb3a2d"/><rect width="132.66" height="50" rx="6.96" ry="6.96" transform="matrix(0 1-1 0 228.4 198.33)" fill="#fbc359"/><rect width="174.92" height="50" rx="6.96" ry="6.96" transform="matrix(0 1-1 0 300.33 156.08)" fill="#4e6851"/><g><line x1="109.02" y1="198.34" x2="278.76" y2="101.97" fill="none" stroke="#4b848a" stroke-width="15" stroke-linecap="round" stroke-miterlimit="10"/><path d="M307.39,79.4L254.67,76c-2.204589-.128729-4.301691.963969-5.459311,2.844579s-1.188616,4.245112-.080689,6.155421l30.09,51.13c1.131186,1.897524,3.213571,3.019963,5.420499,2.921738s4.181362-1.401224,5.139501-3.391738l22.63-47.74c.834692-1.790954.734107-3.87805-.268942-5.580436s-2.779956-2.801789-4.751058-2.939564Z" fill="#4b848a"/></g></g></svg>
